 <svg  version="1.0" xmlns="http://www.w3.org/2000/svg"  width="300.000000pt" height="300.000000pt" viewBox="0 0 300.000000 300.000000"  preserveAspectRatio="xMidYMid meet">  <g transform="translate(0.000000,300.000000) scale(0.100000,-0.100000)" fill="#cc0000" stroke="none"> <path d="M140 2843 c0 -87 -5 -396 -10 -688 -18 -964 -29 -1777 -23 -1792 9 -24 36 -10 49 27 7 19 13 62 13 95 1 33 6 103 12 155 5 52 11 234 13 403 2 213 6 311 14 319 20 20 26 -1 23 -86 -1 -52 2 -87 8 -91 6 -3 12 -3 12 2 5 25 7 331 3 346 -8 25 -23 21 -30 -8 -3 -14 -10 -25 -14 -25 -14 0 -16 90 -8 310 5 118 11 395 13 615 3 220 5 414 6 430 1 17 1 56 0 88 l-1 57 -40 0 -40 0 0 -157z"/> <path d="M340 2979 c0 -11 5 -30 11 -41 9 -17 13 -18 20 -7 5 8 9 26 9 42 0 20 -5 27 -20 27 -14 0 -20 -7 -20 -21z"/> <path d="M560 2985 c0 -9 7 -32 15 -52 8 -19 15 -49 15 -65 0 -16 7 -45 15 -65 8 -19 15 -53 15 -74 0 -21 5 -50 11 -66 7 -15 17 -55 23 -88 9 -50 15 -61 34 -63 14 -2 22 2 22 11 0 8 7 20 15 27 8 7 15 23 15 35 0 12 -7 28 -15 35 -8 7 -15 23 -15 36 0 26 -22 148 -48 266 l-17 78 -42 0 c-32 0 -43 -4 -43 -15z"/> <path d="M762 2928 c-15 -15 -16 -188 -2 -188 5 0 9 31 8 73 -1 39 4 82 10 94 13 24 2 39 -16 21z"/> <path d="M1800 2896 c0 -14 -5 -28 -10 -31 -8 -5 -7 -11 1 -21 20 -24 28 -15 26 31 -2 46 -17 65 -17 21z"/> <path d="M1630 2885 c0 -8 9 -15 19 -15 11 0 23 -4 26 -10 7 -12 85 -14 85 -2 0 20 -41 39 -84 40 -34 1 -46 -2 -46 -13z"/> <path d="M1270 2849 c-19 -10 -45 -19 -57 -19 -12 0 -24 -4 -27 -9 -3 -4 -24 -11 -47 -15 -23 -4 -65 -17 -93 -30 -28 -13 -68 -31 -88 -40 -55 -24 -92 -59 -143 -135 -44 -67 -56 -101 -35 -101 6 0 10 4 10 10 0 14 151 160 166 160 7 0 19 8 26 18 22 29 84 55 116 49 16 -3 34 -1 39 4 19 19 24 -7 8 -37 -13 -26 -13 -30 0 -40 8 -6 15 -16 15 -22 0 -18 33 -23 48 -8 13 13 12 16 -11 22 -29 7 -36 28 -12 38 8 3 15 14 15 25 0 25 54 79 88 88 15 3 44 15 64 25 24 13 47 18 65 14 15 -3 42 -2 58 3 35 11 28 12 -90 16 -64 3 -87 -1 -115 -16z"/> <path d="M1405 2802 l-40 -3 25 -19 c24 -18 24 -19 5 -25 -76 -25 -183 -101 -157 -111 6 -3 12 -11 12 -17 0 -6 9 -20 20 -32 l21 -22 39 40 c24 23 40 49 40 63 0 26 33 49 57 39 13 -4 14 -8 5 -17 -17 -17 -15 -25 8 -31 14 -3 20 -14 20 -32 0 -33 24 -29 28 6 6 54 14 70 37 81 14 6 25 19 25 29 0 11 10 21 25 25 14 3 25 10 25 14 0 16 -60 21 -94 9 -22 -8 -39 -9 -48 -3 -7 5 -31 8 -53 6z m82 -65 c-6 -20 -27 -19 -27 2 0 14 5 19 15 14 9 -3 14 -10 12 -16z m-172 -106 c-4 -17 -13 -31 -20 -31 -17 0 -24 38 -11 68 8 20 11 21 24 8 10 -9 12 -24 7 -45z"/> <path d="M1790 2767 c0 -8 9 -17 21 -20 37 -10 11 -30 -30 -22 -86 15 -125 11 -181 -17 -30 -15 -59 -28 -65 -28 -5 0 -11 -23 -12 -50 0 -28 1 -50 3 -50 3 0 20 16 38 37 l34 36 26 -20 26 -21 -30 -10 c-31 -11 -42 -42 -14 -42 26 0 9 -45 -41 -110 -56 -73 -90 -96 -113 -78 -31 24 -30 31 4 63 36 34 47 72 18 61 -9 -3 -20 -6 -25 -6 -5 0 -9 -6 -9 -14 0 -8 -12 -29 -27 -47 l-27 -32 23 -18 c13 -11 30 -19 38 -19 8 0 13 -6 11 -12 -6 -18 -48 -23 -48 -6 0 7 -12 19 -27 25 -30 14 -43 9 -25 -9 7 -7 12 -22 12 -35 0 -18 6 -23 25 -23 15 0 38 -6 53 -14 19 -10 61 -14 134 -14 98 0 110 -2 137 -23 21 -17 30 -32 29 -49 -4 -46 8 -52 81 -45 71 8 108 31 137 87 15 29 10 58 -11 58 -15 0 -45 -32 -45 -50 0 -9 -9 -11 -30 -7 -22 5 -35 1 -49 -14 -19 -21 -20 -21 -45 -3 -14 11 -26 24 -26 29 -1 16 -77 93 -100 100 -11 3 -20 11 -20 16 0 5 -7 9 -15 9 -8 0 -15 -4 -15 -10 0 -5 -11 -10 -25 -10 -34 0 -34 34 0 56 14 9 28 27 31 40 3 13 10 24 15 24 5 0 9 5 9 12 0 6 8 20 17 31 13 13 18 36 18 80 l0 62 95 12 c52 6 99 9 103 6 5 -3 7 -14 4 -24 -4 -15 0 -19 24 -19 22 0 29 -5 29 -20 0 -13 -7 -20 -18 -20 -23 0 -62 -40 -62 -63 0 -9 2 -17 3 -17 13 0 73 36 80 47 4 7 14 13 21 13 8 0 17 8 21 18 6 15 8 15 25 -5 10 -13 28 -23 39 -23 11 0 26 -9 33 -20 7 -11 18 -20 24 -20 6 0 23 -17 38 -38 25 -36 71 -71 80 -61 10 10 -42 97 -81 134 -46 45 -114 85 -143 85 -27 0 -50 28 -50 61 0 22 -5 29 -19 29 -11 0 -27 7 -36 16 -22 23 -95 32 -95 11z m-292 -444 c18 -4 20 -8 10 -14 -21 -14 -48 -10 -48 6 0 17 4 18 38 8z"/> <path d="M1408 2654 c-14 -14 -8 -51 10 -67 23 -21 32 -21 32 -2 0 8 -4 15 -9 15 -4 0 -12 14 -17 31 -5 17 -12 27 -16 23z"/> <path d="M435 2604 c-7 -48 -3 -60 14 -49 13 8 15 82 2 89 -5 3 -12 -15 -16 -40z"/> <path d="M1051 2626 c-8 -9 -11 -19 -7 -23 9 -9 29 13 24 27 -2 8 -8 7 -17 -4z"/> <path d="M1130 2605 c-14 -16 -6 -35 16 -35 8 0 14 10 14 25 0 28 -12 32 -30 10z"/> <path d="M1011 2591 c-10 -7 -10 -10 -1 -16 6 -4 16 -3 22 3 13 13 -4 23 -21 13z"/> <path d="M1073 2569 c-6 -8 -14 -24 -17 -36 -4 -14 -15 -23 -27 -23 -23 0 -25 -15 -3 -24 22 -8 21 -9 28 20 6 23 11 26 36 20 34 -6 37 3 12 34 -15 18 -20 20 -29 9z"/> <path d="M1970 2542 c0 -28 -53 -92 -77 -92 -7 0 -15 -9 -18 -20 -4 -11 -18 -28 -31 -37 -16 -10 -23 -22 -19 -33 3 -10 1 -21 -5 -25 -16 -10 -12 -23 12 -36 18 -10 24 -8 38 11 14 19 20 21 38 11 18 -9 22 -8 28 12 4 12 24 49 45 81 50 77 54 156 8 156 -14 0 -19 -7 -19 -28z"/> <path d="M1557 2553 c-4 -3 -7 -15 -7 -25 0 -26 24 -17 28 10 3 21 -8 29 -21 15z"/> <path d="M2292 2526 c-18 -9 -22 -16 -17 -36 4 -14 13 -32 20 -40 7 -8 16 -46 18 -85 10 -137 28 -240 43 -248 9 -5 12 -16 8 -33 -5 -18 -2 -24 10 -24 9 0 16 -7 16 -15 0 -8 -4 -15 -10 -15 -5 0 -10 -7 -10 -15 0 -8 7 -15 15 -15 8 0 16 -6 16 -12 4 -46 17 67 18 161 l1 114 -34 42 c-35 43 -61 135 -37 135 6 0 11 9 11 20 0 11 -6 20 -14 20 -23 0 -31 22 -12 32 41 23 3 36 -42 14z m103 -347 c-8 -11 -35 -12 -35 0 0 5 3 24 7 42 l7 34 13 -33 c7 -18 11 -37 8 -43z"/> <path d="M1195 2518 c-4 -10 -13 -18 -21 -18 -16 0 -19 -26 -4 -35 6 -3 13 2 17 12 4 10 11 21 16 24 5 4 7 13 4 20 -3 11 -6 10 -12 -3z"/> <path d="M1260 2525 c0 -21 18 -37 36 -33 18 5 18 5 -1 13 -11 5 -23 13 -27 19 -5 7 -8 7 -8 1z"/> <path d="M464 2479 c3 -17 6 -35 6 -40 0 -5 5 -9 10 -9 6 0 10 18 10 40 0 30 -4 40 -16 40 -13 0 -15 -7 -10 -31z"/> <path d="M1803 2483 c-7 -2 -13 -9 -13 -15 0 -6 -8 -17 -17 -24 -13 -9 -15 -16 -7 -24 7 -7 16 -5 29 10 10 11 24 20 31 20 20 0 28 21 13 31 -15 10 -18 10 -36 2z"/> <path d="M1241 2467 c-12 -15 -5 -27 16 -27 7 0 13 9 13 20 0 23 -13 26 -29 7z"/> <path d="M660 2417 c-30 -30 -36 -51 -21 -75 14 -22 60 -4 67 27 10 47 14 53 29 47 8 -3 27 1 42 9 15 8 26 15 23 15 -83 9 -112 4 -140 -23z"/> <path d="M816 2428 c-19 -21 -19 -21 0 -35 16 -12 17 -16 5 -35 -12 -19 -11 -23 5 -35 17 -12 22 -11 41 12 13 14 33 25 48 25 14 0 25 4 25 9 0 14 -43 21 -57 9 -10 -8 -13 -6 -13 5 0 11 -5 14 -16 10 -14 -5 -15 -1 -9 25 8 37 -2 39 -29 10z"/> <path d="M2083 2425 c-3 -9 -2 -43 1 -75 6 -54 5 -60 -11 -60 -24 0 -46 -65 -28 -83 6 -7 15 -29 19 -49 3 -20 16 -48 27 -62 11 -14 18 -30 14 -35 -3 -5 9 -38 26 -72 34 -66 31 -98 -7 -90 -11 2 -83 6 -161 8 -115 4 -147 2 -172 -11 -16 -9 -50 -16 -75 -16 -24 0 -57 -6 -73 -14 -72 -36 -111 -41 -198 -23 -83 17 -119 15 -112 -7 2 -6 15 -12 30 -14 14 -2 33 -14 41 -27 15 -23 15 -30 -1 -87 -18 -66 -55 -137 -76 -142 -90 -26 -157 -33 -212 -24 -33 5 -78 11 -100 12 -53 4 -46 2 -88 39 -28 25 -36 41 -39 71 -4 56 -28 60 -28 5 0 -90 65 -159 149 -159 18 0 41 -5 51 -10 29 -15 197 -17 212 -2 7 7 24 12 39 12 54 0 85 40 133 175 15 41 30 64 48 75 25 13 29 13 55 -6 15 -12 29 -30 31 -42 2 -11 10 -26 18 -32 8 -7 14 -23 14 -36 0 -36 34 -84 79 -111 40 -24 47 -24 182 -20 87 2 144 8 151 15 7 7 21 12 31 12 11 0 38 19 61 43 36 36 44 51 49 96 8 68 27 121 44 121 7 0 21 5 31 11 15 9 24 8 45 -6 15 -9 27 -23 27 -30 0 -7 7 -15 15 -19 10 -3 15 -19 15 -45 0 -22 5 -52 12 -66 8 -18 8 -32 1 -48 -6 -12 -20 -43 -32 -68 -11 -25 -21 -53 -21 -61 0 -9 -7 -21 -15 -28 -8 -7 -15 -19 -15 -26 0 -8 -4 -14 -8 -14 -4 0 -21 -20 -36 -45 -16 -25 -35 -45 -42 -45 -21 0 -43 -29 -54 -73 -6 -23 -15 -51 -20 -62 -5 -11 -14 -31 -20 -45 -12 -30 -27 -54 -62 -101 -26 -35 -28 -43 -28 -137 0 -63 4 -102 11 -104 22 -7 51 -121 46 -183 -9 -114 -29 -260 -38 -275 -16 -27 -39 -83 -46 -109 l-6 -26 25 23 c41 37 49 14 41 -112 l-6 -106 42 0 41 0 -1 128 c-2 129 6 197 24 219 6 9 6 17 0 25 -23 29 -31 97 -19 155 10 52 14 58 35 55 24 -2 51 13 51 29 0 5 -9 9 -20 9 -19 0 -20 4 -14 36 6 34 5 36 -15 29 -31 -9 -27 15 9 55 17 18 30 37 30 41 0 18 -23 20 -40 4 -18 -17 -20 -16 -31 9 -11 24 -10 30 12 51 13 13 29 31 36 38 9 11 29 14 87 10 84 -5 92 2 55 46 -17 21 -21 22 -37 9 -9 -9 -28 -18 -42 -21 -14 -3 -36 -8 -48 -11 -13 -3 -35 -17 -48 -31 -12 -14 -27 -25 -33 -25 -16 0 -24 20 -13 33 5 7 13 38 16 69 7 52 15 67 72 138 35 45 62 85 59 91 -10 16 26 98 46 104 11 4 19 11 19 17 0 5 20 36 44 68 l45 59 12 141 13 142 -22 17 c-18 13 -20 19 -10 29 9 9 6 12 -15 12 -23 0 -27 4 -27 28 0 16 -8 32 -18 39 -14 8 -18 20 -14 42 4 31 -2 36 -38 31 -20 -2 -60 -40 -60 -57 0 -24 -19 -14 -26 14 -5 18 -2 30 8 37 20 15 39 73 31 94 -4 9 -13 22 -21 28 -11 8 -12 13 -4 18 20 12 13 46 -18 93 -16 24 -30 48 -30 52 0 5 -7 15 -16 22 -25 20 -37 61 -22 70 7 4 13 26 13 48 0 23 3 41 7 41 5 0 8 -4 8 -9 0 -5 9 -13 20 -16 11 -3 20 -14 20 -23 0 -22 46 -66 55 -52 3 5 -1 13 -9 16 -9 3 -16 14 -16 24 0 10 -7 23 -15 30 -8 7 -15 17 -15 22 0 16 -57 68 -75 68 -8 0 -18 -7 -22 -15z m46 -292 c11 -16 28 -35 36 -44 9 -10 13 -19 8 -22 -10 -6 -53 27 -53 41 0 5 -7 12 -15 16 -16 6 -21 36 -6 36 5 0 19 -12 30 -27z m-23 -284 l26 -24 -39 -12 -38 -11 33 -1 c26 -1 35 -7 42 -27 6 -16 7 -31 1 -38 -4 -6 -11 -32 -15 -57 -8 -53 -35 -83 -83 -94 -18 -3 -33 -11 -33 -16 0 -5 -62 -9 -142 -9 l-141 0 -39 39 c-21 22 -38 47 -38 56 0 9 -7 23 -15 32 -24 23 -16 112 10 127 11 6 24 17 28 24 6 9 21 11 52 7 36 -6 46 -4 62 14 17 20 26 21 160 18 135 -3 144 -4 169 -28z"/> <path d="M1737 1821 c-46 -10 -45 -8 -53 -59 l-7 -42 72 0 c60 0 73 3 77 18 3 9 11 29 19 44 8 15 11 29 7 32 -16 10 -80 14 -115 7z"/> <path d="M1922 1791 c-24 -15 -10 -46 22 -49 23 -3 28 0 22 13 -3 9 -6 23 -6 31 0 16 -18 18 -38 5z"/> <path d="M1732 1688 c5 -15 37 -18 41 -3 1 6 -9 12 -22 13 -16 3 -22 -1 -19 -10z"/> <path d="M1728 2389 c-17 -18 -17 -19 1 -19 10 0 21 -7 25 -15 6 -16 36 -21 36 -6 0 5 -7 14 -15 21 -8 7 -15 19 -15 26 0 19 -11 16 -32 -7z"/> <path d="M1027 2362 c-21 -23 -13 -32 30 -32 21 0 36 -6 39 -15 4 -8 14 -15 24 -15 10 0 23 7 30 15 7 8 18 15 25 15 7 0 15 -7 19 -15 6 -18 26 -20 26 -4 0 21 -34 38 -76 39 -28 0 -44 5 -48 15 -8 21 -49 19 -69 -3z"/> <path d="M1245 2330 c-8 -14 3 -30 21 -30 8 0 14 9 14 20 0 21 -24 28 -35 10z"/> <path d="M630 2291 c0 -24 50 -65 63 -52 9 9 -8 50 -27 63 -20 14 -36 8 -36 -11z"/> <path d="M1285 2290 c-8 -12 17 -23 41 -18 10 1 19 9 22 16 5 15 -54 17 -63 2z"/> <path d="M875 2260 c-7 -12 27 -22 37 -12 6 6 1 12 -11 15 -12 3 -23 2 -26 -3z"/> <path d="M954 2244 c3 -9 6 -18 6 -20 0 -2 4 -4 9 -4 5 0 7 9 4 20 -3 11 -10 20 -15 20 -6 0 -7 -7 -4 -16z"/> <path d="M810 2220 c-19 -11 -50 -25 -68 -32 -21 -8 -40 -27 -52 -51 -18 -35 -19 -40 -5 -67 8 -16 19 -31 25 -35 15 -10 50 18 50 41 0 17 -5 20 -25 16 -20 -3 -25 0 -25 15 0 24 30 53 53 53 26 0 97 48 97 65 0 19 -7 18 -50 -5z"/> <path d="M1533 2229 c-11 -4 -30 -22 -42 -41 -11 -18 -36 -44 -56 -58 -41 -30 -43 -38 -12 -45 33 -9 95 32 99 65 3 22 8 25 40 25 44 0 53 7 39 33 -12 23 -39 32 -68 21z"/> <path d="M1061 2171 c-21 -14 -6 -38 28 -46 30 -6 41 -28 21 -40 -17 -10 -11 -25 9 -25 31 0 51 11 51 27 0 9 8 22 18 29 15 12 15 15 2 23 -8 6 -24 8 -35 5 -12 -3 -32 3 -47 15 -30 24 -28 24 -47 12z"/> <path d="M620 2127 c0 -26 -5 -47 -12 -49 -20 -7 -36 -114 -25 -169 8 -40 6 -58 -7 -91 -8 -23 -14 -43 -12 -46 3 -2 20 1 40 8 31 10 37 9 55 -9 51 -51 117 -61 93 -15 -14 28 -4 46 18 34 10 -5 25 -8 32 -5 9 4 19 -4 26 -20 15 -32 25 -32 40 3 37 82 29 78 163 85 67 4 159 4 205 1 l83 -7 18 37 c17 37 19 37 67 34 33 -2 51 1 53 10 3 7 -5 12 -21 12 -15 0 -30 8 -36 21 -11 19 -13 19 -29 5 -16 -14 -19 -14 -33 1 -16 15 -19 15 -42 0 -33 -22 -43 -21 -49 3 -6 24 -22 26 -31 4 -11 -28 12 -54 49 -54 37 0 54 -15 36 -33 -8 -8 -72 -11 -207 -9 l-196 2 -58 -31 c-32 -17 -64 -28 -70 -24 -12 7 -9 52 6 103 9 32 -24 29 -36 -4 -13 -33 -30 -22 -30 21 0 19 -4 36 -9 39 -11 7 -45 -48 -55 -89 -6 -22 -9 -26 -17 -14 -14 22 -11 75 6 89 17 14 20 46 5 55 -15 9 -12 46 5 65 10 11 12 24 7 45 -13 48 -32 43 -32 -8z"/> <path d="M1220 2132 c0 -12 23 -32 37 -32 18 0 16 27 -3 34 -21 8 -34 8 -34 -2z"/> <path d="M812 2111 c-16 -10 1 -27 33 -33 24 -4 33 -47 13 -59 -19 -13 -58 -11 -58 3 0 6 -2 9 -5 7 -8 -9 7 -49 20 -49 7 0 24 -9 39 -21 l26 -21 41 21 c22 12 47 21 57 21 9 0 32 9 49 20 28 16 37 18 59 8 19 -9 25 -18 21 -36 -2 -13 2 -30 11 -38 19 -20 66 -14 70 8 5 25 -35 78 -58 78 -10 0 -21 4 -25 9 -3 6 -23 9 -44 9 -42 0 -64 8 -56 22 17 28 -49 14 -88 -19 -22 -18 -49 1 -29 21 17 17 15 28 -7 28 -10 0 -21 7 -25 15 -6 17 -24 19 -44 6z"/> <path d="M1347 2093 c-12 -11 -8 -23 8 -23 8 0 15 7 15 15 0 16 -12 20 -23 8z"/> <path d="M1190 2041 c0 -11 5 -23 10 -26 6 -4 10 5 10 19 0 14 -4 26 -10 26 -5 0 -10 -9 -10 -19z"/> <path d="M1745 2001 c-59 -7 -71 -14 -78 -41 -8 -31 34 -45 73 -25 16 8 53 15 83 15 40 0 58 5 71 18 15 18 15 19 -9 30 -27 13 -58 13 -140 3z"/> <path d="M1945 1980 c3 -5 13 -10 21 -10 8 0 14 5 14 10 0 6 -9 10 -21 10 -11 0 -17 -4 -14 -10z"/> <path d="M1217 1804 c-3 -4 -29 -6 -56 -6 -57 2 -75 -14 -43 -36 12 -8 22 -25 22 -38 0 -28 28 -39 76 -29 29 5 34 10 34 34 0 34 9 44 26 30 8 -7 11 -21 8 -35 -7 -26 7 -32 24 -11 6 6 13 24 17 38 6 23 2 29 -26 43 -33 16 -71 21 -82 10z"/> <path d="M990 1756 c-5 -13 -18 -27 -29 -31 -44 -14 -19 -26 47 -23 60 3 67 5 70 25 2 16 -5 26 -27 37 -41 21 -50 20 -61 -8z"/> <path d="M530 1750 c0 -11 5 -20 10 -20 6 0 10 9 10 20 0 11 -4 20 -10 20 -5 0 -10 -9 -10 -20z"/> <path d="M2266 1674 c-7 -63 10 -147 25 -123 10 16 12 139 3 163 -12 30 -21 16 -28 -40z"/> <path d="M580 1695 c-7 -13 -13 -44 -14 -67 0 -44 30 -128 47 -128 6 0 7 17 2 43 -10 59 -11 96 -2 140 9 44 -11 52 -33 12z"/> <path d="M720 1677 c-32 -42 -45 -189 -21 -224 9 -12 20 -23 25 -23 6 0 22 -12 37 -26 27 -26 49 -25 49 2 0 8 -11 19 -25 26 -13 6 -29 24 -34 39 -8 24 -7 32 10 48 19 18 20 23 9 100 -7 45 -16 83 -20 86 -4 2 -17 -10 -30 -28z"/> <path d="M508 1695 c-15 -24 -17 -134 -2 -170 8 -19 16 -49 18 -66 2 -17 10 -35 17 -40 11 -6 11 -11 1 -21 -22 -22 -13 -37 69 -117 59 -57 86 -77 100 -74 13 4 19 0 19 -11 0 -9 -6 -16 -12 -16 -9 0 -8 -3 2 -10 10 -6 22 -4 37 5 32 21 43 19 43 -10 0 -14 7 -36 16 -50 8 -13 17 -38 19 -56 4 -30 14 -43 40 -52 6 -2 1 -14 -9 -26 -16 -18 -17 -25 -7 -47 6 -15 9 -35 6 -45 -4 -10 -3 -24 1 -31 6 -10 9 -46 5 -75 -1 -4 -8 2 -16 13 -15 18 -16 17 -10 -12 10 -50 -27 -115 -108 -189 -39 -36 -78 -65 -87 -65 -8 0 -24 -6 -35 -14 -11 -7 -33 -16 -50 -20 -16 -4 -91 -37 -165 -73 -138 -68 -175 -81 -245 -90 -22 -3 -45 -14 -52 -23 -7 -10 -27 -21 -43 -25 -17 -4 -30 -11 -30 -16 0 -5 -7 -9 -15 -9 -11 0 -15 -12 -15 -45 0 -42 11 -58 25 -35 11 18 26 10 20 -10 -5 -16 -2 -20 15 -20 16 0 20 4 16 16 -9 22 12 56 33 52 9 -2 35 12 58 30 22 17 49 32 60 32 10 0 23 4 29 8 5 5 41 19 81 31 39 12 83 31 97 42 14 11 30 17 36 14 5 -3 20 1 32 9 12 9 31 16 40 16 11 0 23 11 28 25 6 17 20 27 40 31 16 4 35 13 41 20 6 8 27 14 45 14 21 0 34 5 34 13 0 7 6 22 14 33 14 18 15 18 25 -8 6 -16 19 -28 33 -30 16 -2 24 -12 29 -36 4 -19 12 -39 18 -45 6 -6 11 -18 11 -27 0 -25 74 -180 86 -180 6 0 9 -10 7 -24 -3 -13 0 -32 5 -43 6 -11 7 -25 2 -33 -5 -8 -3 -27 5 -46 11 -28 11 -34 -3 -48 -15 -15 -11 -16 54 -16 l71 0 -17 50 c-9 28 -20 53 -24 57 -13 13 -5 31 17 37 19 5 20 8 7 19 -19 15 -50 63 -50 77 0 6 7 6 20 -2 37 -23 32 2 -11 59 -51 68 -79 116 -79 139 0 9 -6 28 -14 42 -40 78 -55 202 -32 272 9 27 16 56 16 65 0 9 7 23 15 31 8 9 15 25 15 36 0 49 -33 194 -49 214 -9 12 -23 41 -30 65 -25 86 -32 94 -82 91 -49 -2 -60 4 -109 68 -18 25 -42 53 -52 63 -10 10 -18 24 -18 32 0 8 -4 15 -10 15 -5 0 -10 6 -10 14 0 8 -6 21 -13 28 -39 41 -52 76 -57 153 -3 44 -8 75 -12 70z"/> <path d="M1250 1664 c-10 -11 -9 -14 8 -14 25 0 37 16 18 23 -8 3 -20 -1 -26 -9z"/> <path d="M2177 1563 c-9 -17 -18 -46 -19 -65 -3 -27 1 -34 19 -36 17 -3 24 3 28 25 4 15 8 33 10 38 1 6 -3 24 -9 40 l-13 30 -16 -32z"/> <path d="M1764 1446 c-3 -8 1 -25 10 -38 9 -12 16 -30 16 -40 0 -10 7 -18 14 -18 29 0 65 -45 68 -86 3 -38 3 -39 -29 -36 -39 4 -140 -42 -147 -66 -10 -30 -94 -61 -176 -64 -70 -3 -75 -2 -87 22 -7 14 -9 28 -5 32 4 3 46 8 93 10 91 5 109 10 109 35 0 12 -3 13 -13 5 -7 -6 -24 -11 -38 -10 -68 4 -209 -3 -209 -11 0 -5 9 -11 21 -14 16 -4 19 -10 14 -29 -12 -40 -22 -41 -35 -3 -12 36 -13 36 -24 14 -16 -33 -36 -36 -36 -6 0 14 6 27 13 30 6 2 2 2 -10 1 -12 -2 -24 0 -27 5 -3 4 -24 11 -46 15 -67 11 -101 56 -65 86 17 14 20 56 6 65 -12 7 -73 -55 -101 -102 l-20 -34 26 -9 c14 -6 29 -10 33 -10 4 0 12 -5 19 -12 6 -6 22 -13 34 -15 13 -2 39 -14 59 -28 23 -15 45 -22 58 -18 12 3 21 1 21 -6 0 -22 58 -40 145 -44 67 -3 91 -8 100 -21 17 -23 29 -20 77 14 22 17 46 30 52 30 6 0 31 16 56 35 25 19 54 42 65 50 11 9 31 15 45 13 23 -3 25 -8 28 -55 4 -69 23 -69 46 1 28 83 19 136 -32 184 -22 20 -44 49 -47 64 -9 36 -73 86 -81 64z"/> <path d="M2185 1421 c-6 -11 9 -23 19 -14 9 9 7 23 -3 23 -6 0 -12 -4 -16 -9z"/> <path d="M1380 1379 c-12 -16 -20 -33 -17 -36 3 -3 31 -5 62 -4 40 0 57 -4 62 -14 8 -22 23 -18 23 5 0 10 -9 24 -20 30 -11 6 -20 20 -20 30 0 16 -7 20 -34 20 -27 0 -39 -7 -56 -31z"/> <path d="M1611 1401 c-21 -14 -5 -41 24 -41 29 0 45 27 24 41 -8 5 -18 9 -24 9 -5 0 -16 -4 -24 -9z"/> <path d="M1526 1265 c-8 -31 -3 -41 24 -48 33 -8 37 21 8 50 l-25 25 -7 -27z"/> <path d="M1131 1108 c-10 -26 2 -56 25 -65 20 -8 30 5 16 19 -7 7 -12 22 -12 34 0 32 -19 40 -29 12z"/> <path d="M474 1057 c-3 -10 -3 -29 1 -45 l8 -27 9 34 c10 37 -5 70 -18 38z"/> <path d="M240 995 c0 -22 4 -34 10 -30 6 3 10 17 10 30 0 13 -4 27 -10 30 -6 4 -10 -8 -10 -30z"/> <path d="M747 1002 c-10 -14 -12 -90 -3 -99 12 -13 17 6 14 58 -2 32 -6 49 -11 41z"/> <path d="M1395 851 c-7 -13 12 -51 26 -51 14 0 7 52 -8 57 -6 2 -14 -1 -18 -6z"/> <path d="M2216 852 c-9 -15 12 -35 29 -28 14 5 15 9 5 21 -14 17 -26 19 -34 7z"/> <path d="M1142 839 c2 -6 8 -10 13 -10 5 0 11 4 13 10 2 6 -4 11 -13 11 -9 0 -15 -5 -13 -11z"/> <path d="M985 740 c-13 -21 53 -134 100 -170 25 -19 63 -50 83 -67 20 -18 40 -33 45 -33 8 0 33 49 26 53 -2 1 -25 13 -51 26 -50 23 -55 30 -37 48 7 7 7 13 1 17 -6 3 -13 2 -17 -4 -10 -17 -32 -11 -38 10 -3 12 -14 20 -25 20 -13 0 -24 10 -31 30 -5 17 -15 30 -20 30 -6 0 -11 9 -11 19 0 23 -16 36 -25 21z"/> <path d="M1350 731 c0 -13 49 -51 66 -51 11 0 34 29 34 43 0 2 -12 4 -27 3 -16 0 -38 3 -50 7 -14 5 -23 4 -23 -2z"/> <path d="M1970 662 c0 -16 -7 -35 -15 -42 -8 -7 -15 -18 -15 -25 0 -7 -37 -47 -82 -88 -103 -93 -127 -112 -155 -121 -13 -4 -23 -11 -23 -16 0 -4 -11 -11 -25 -14 -14 -4 -25 -11 -25 -16 0 -13 47 -13 55 0 3 6 18 10 32 10 13 0 36 9 50 20 14 11 31 20 37 20 17 0 113 96 141 140 14 22 25 48 25 59 0 10 7 24 16 31 17 15 15 61 -3 68 -9 2 -13 -7 -13 -26z"/> <path d="M1435 550 c-3 -5 3 -18 15 -30 11 -11 20 -31 20 -45 0 -18 5 -25 20 -25 22 0 25 16 11 53 -17 43 -52 69 -66 47z"/> <path d="M2230 492 c0 -26 26 -52 50 -52 10 0 20 -7 24 -15 3 -8 17 -20 31 -25 14 -5 25 -14 25 -20 0 -5 8 -18 18 -28 90 -93 105 -143 55 -180 -25 -18 -26 -21 -10 -28 13 -5 26 3 48 27 38 42 48 78 25 91 -9 5 -16 17 -16 27 0 10 -7 24 -16 31 -8 8 -20 22 -25 32 -8 15 -6 18 16 18 18 0 25 -5 25 -20 0 -15 7 -20 29 -20 21 0 32 -6 36 -20 7 -23 16 -25 33 -8 8 8 14 5 21 -15 8 -19 18 -27 35 -27 14 0 27 4 30 8 8 14 -38 72 -57 72 -11 0 -30 9 -44 20 -14 11 -31 20 -39 20 -7 0 -25 7 -41 14 -15 8 -35 18 -43 21 -8 3 -24 11 -35 18 -86 51 -114 65 -142 72 -29 6 -33 4 -33 -13z"/> <path d="M1248 476 c-24 -18 -22 -28 4 -24 13 2 24 11 26 21 4 20 -6 21 -30 3z"/> <path d="M1275 430 c3 -5 13 -10 21 -10 8 0 12 5 9 10 -3 6 -13 10 -21 10 -8 0 -12 -4 -9 -10z"/> <path d="M1756 305 c-31 -29 -61 -47 -84 -51 -21 -3 -53 -10 -72 -15 -19 -5 -38 -5 -42 -1 -11 11 14 62 29 62 6 0 14 4 17 8 3 5 -28 10 -69 10 -41 1 -75 -1 -75 -4 0 -8 52 -54 61 -54 20 0 7 -30 -23 -55 l-33 -26 24 -19 c13 -11 32 -20 42 -20 19 0 61 -16 144 -57 28 -13 58 -21 67 -18 12 5 15 2 12 -12 -3 -10 1 -27 9 -37 13 -18 15 -17 22 20 15 71 42 130 70 152 37 29 48 59 35 93 -7 15 -22 31 -34 35 -11 3 -28 12 -36 20 -13 11 -22 7 -64 -31z m54 -65 c0 -11 -4 -20 -10 -20 -5 0 -10 9 -10 20 0 11 5 20 10 20 6 0 10 -9 10 -20z"/> <path d="M1255 300 c-34 -22 -50 -56 -32 -67 7 -4 33 -8 58 -9 25 -1 62 -12 82 -23 41 -23 67 -27 67 -11 0 6 7 10 16 10 9 0 14 7 12 18 -2 12 -15 18 -46 20 -26 2 -45 9 -49 18 -3 8 -13 14 -22 14 -9 0 -21 10 -26 22 -14 30 -25 31 -60 8z"/> <path d="M1225 189 c-4 -5 0 -18 9 -28 9 -10 16 -29 16 -44 0 -30 18 -46 31 -26 8 12 12 11 23 -3 18 -24 31 -22 50 7 21 32 16 41 -30 50 -27 5 -34 9 -25 18 23 23 12 37 -28 37 -22 0 -43 -5 -46 -11z"/> <path d="M1395 108 c-27 -14 -45 -38 -45 -59 0 -15 4 -16 29 -6 23 9 34 7 55 -6 14 -10 45 -17 70 -17 25 0 48 -5 51 -10 8 -13 95 -13 95 -1 0 16 -30 41 -49 41 -9 0 -21 4 -26 9 -6 6 -28 14 -50 19 -22 6 -56 17 -75 25 -26 11 -41 13 -55 5z"/> <path d="M1385 10 c-4 -6 5 -10 19 -10 14 0 26 5 26 10 0 6 -9 10 -19 10 -11 0 -23 -4 -26 -10z"/> </g> </svg> 